<svg xmlns="http://www.w3.org/2000/svg" viewBox="0 0 30.77 39.977"><defs><style>.a{fill:none;stroke:#fff;stroke-width:2px;}</style></defs><g transform="translate(-34.964 -212.037)"><g transform="translate(35.97 213.514)"><path class="a" d="M2195.959,451.974h-13.738a3.63,3.63,0,0,0-2.345.616,3.482,3.482,0,0,0-.665,2.3v31.641a3.6,3.6,0,0,0,.665,2.348,3.475,3.475,0,0,0,2.345.564h21.85a3.621,3.621,0,0,0,2.361-.6,3.467,3.467,0,0,0,.65-2.311v-24.87l-5.365-4.671Z" transform="translate(-2179.208 -451.967)"/><path class="a" d="M2207.214,459.253l-10.124.518v-9.16Z" transform="translate(-2180.009 -449.92)"/></g><g transform="translate(-4.243 -4.243)"><line class="a" y2="14.243" transform="translate(56.622 236.5)"/><line class="a" x2="14.243" transform="translate(49.5 243.622)"/></g></g></svg>