<svg xmlns="http://www.w3.org/2000/svg" viewBox="0 0 34.058 42"><defs><style>.a{fill:#fff;}.a,.b{stroke:#199ec7;stroke-width:2px;}.b{fill:none;}</style></defs><g transform="translate(-37.004 -445.204)"><g transform="translate(38.034 446.204)"><path class="a" d="M2575.535,445.055h11.4v4.014l10.318,7.246a20.565,20.565,0,0,1-2.056,7.708,16.46,16.46,0,0,1-5.231,5.292,15.406,15.406,0,0,1-8.875,2.451c-5.592-.036-13.1-4.511-14.395-8.738a31.812,31.812,0,0,1-1.443-6.713l10.282-7.246Z" transform="translate(-2565.253 -445.055)"/><path class="a" d="M2609.708,481.209l3.1-6.18" transform="translate(-2600.184 -468.706)"/><path class="a" d="M2591.2,515.273l-3.716,7.352" transform="translate(-2582.719 -500.462)"/><line class="b" y2="20.039" transform="translate(15.907 6.633)"/><line class="b" x1="7.927" y1="15.609" transform="translate(19.335 6.633)"/></g><g transform="translate(50.977 476.226)"><path class="a" d="M2620.993,591.267c1.161,2.289,3.418,5.329,3.159,7.086a3.213,3.213,0,0,1-3.159,2.891,2.964,2.964,0,0,1-3.086-2.891C2618.188,595.334,2620.993,591.267,2620.993,591.267Z" transform="translate(-2617.907 -591.267)"/></g></g></svg>