<svg xmlns="http://www.w3.org/2000/svg" viewBox="0 0 207.127 202.358">
  <defs>
    <style>
      .cls-1 {
        fill: #f8f3eb;
      }

      .cls-1, .cls-2, .cls-3 {
        stroke: #a2885e;
        stroke-width: 3px;
      }

      .cls-2 {
        fill: #fff;
      }

      .cls-3, .cls-5 {
        fill: none;
      }

      .cls-4 {
        stroke: none;
      }
    </style>
  </defs>
  <g id="Group_181" data-name="Group 181" transform="translate(-371 -514)">
    <g id="Ellipse_4" data-name="Ellipse 4" class="cls-1" transform="translate(371 514)">
      <ellipse class="cls-4" cx="103.564" cy="101.179" rx="103.564" ry="101.179"/>
      <ellipse class="cls-5" cx="103.564" cy="101.179" rx="102.064" ry="99.679"/>
    </g>
    <g id="Group_15" data-name="Group 15" transform="translate(432.196 573.116)">
      <path id="Path_8" data-name="Path 8" class="cls-2" d="M2592.649,445.055h30.376v10.612l27.491,19.158s-.625,11.786-5.479,20.379S2631.1,509.2,2631.1,509.2s-8.745,6.574-23.646,6.48-34.895-11.927-38.354-23.1-3.845-17.749-3.845-17.749l27.4-19.158Z" transform="translate(-2565.253 -445.055)"/>
      <path id="Path_9" data-name="Path 9" class="cls-2" d="M2609.708,491.369l8.267-16.341" transform="translate(-2584.331 -458.312)"/>
      <path id="Path_10" data-name="Path 10" class="cls-2" d="M2597.382,515.273l-9.9,19.44" transform="translate(-2574.792 -476.112)"/>
      <line id="Line_2" data-name="Line 2" class="cls-3" y2="52.982" transform="translate(42.384 17.537)"/>
      <line id="Line_3" data-name="Line 3" class="cls-3" x1="21.121" y1="41.27" transform="translate(51.517 17.537)"/>
    </g>
    <g id="Group_16" data-name="Group 16" transform="translate(466.682 652.491)">
      <path id="Path_11" data-name="Path 11" class="cls-2" d="M2626.131,591.267c3.093,6.052,9.107,14.089,8.416,18.735-1.036,5.476-4.787,7.535-8.416,7.645-4.193.128-8.259-3.133-8.224-7.645C2618.657,602.02,2626.131,591.267,2626.131,591.267Z" transform="translate(-2617.907 -591.267)"/>
    </g>
  </g>
</svg>
