<svg xmlns="http://www.w3.org/2000/svg" viewBox="0 0 25.38 23.091">
  <defs>
    <style>
      .cls-1, .cls-2 {
        fill: #fff;
      }

      .cls-2 {
        stroke: #199ec7;
        stroke-width: 1.5px;
      }

      .cls-3, .cls-4 {
        stroke: none;
      }

      .cls-4 {
        fill: #199ec7;
      }

      .cls-5 {
        fill: none;
      }
    </style>
  </defs>
  <g id="Group_234" data-name="Group 234" transform="translate(-10 -9)">
    <g id="Path_35" data-name="Path 35" class="cls-1" transform="translate(17.961 21.264) rotate(-49)">
      <path class="cls-3" d="M 5.625755786895752 16.0924072265625 C 5.339235782623291 16.0924072265625 5.003955841064453 16.06617736816406 4.648985862731934 16.03840637207031 C 4.333885669708252 16.01374626159668 4.008045673370361 15.98825740814209 3.666915655136108 15.97621726989746 C 3.496325731277466 15.97018718719482 3.320185661315918 15.96738719940186 3.112575769424438 15.96738719940186 C 2.967795610427856 15.96738719940186 2.826855659484863 15.9687671661377 2.69014573097229 15.97011756896973 C 2.566185712814331 15.97134685516357 2.445825576782227 15.97254753112793 2.329385757446289 15.97254753112793 C 1.895675659179688 15.97254753112793 1.466875672340393 15.95614719390869 1.267735719680786 15.83716678619385 C 1.218052625656128 15.8074779510498 1.067838668823242 15.71770000457764 1.045096635818481 15.14855575561523 L 1.21332573890686 1.565847158432007 L 1.213545680046082 1.548097252845764 L 1.212925672531128 1.530357241630554 C 1.198431253433228 1.115738153457642 1.240872263908386 0.939680278301239 1.263055324554443 0.8774857521057129 C 1.29738450050354 0.8702141642570496 1.364823698997498 0.8608772158622742 1.48477566242218 0.8608772158622742 C 1.669975638389587 0.8608772158622742 1.905735731124878 0.881827175617218 2.178725719451904 0.9060872197151184 C 2.473085641860962 0.9322472214698792 2.806735754013062 0.9618971943855286 3.182745695114136 0.9751672148704529 C 3.265255689620972 0.9780871868133545 3.348965644836426 0.97955721616745 3.431535720825195 0.97955721616745 C 3.920885801315308 0.97955721616745 4.324645519256592 0.9275972247123718 4.619455814361572 0.889657199382782 C 4.72266674041748 0.8763731122016907 4.817387580871582 0.8641825318336487 4.896514892578125 0.856608510017395 C 4.913458347320557 0.9608630537986755 4.93147087097168 1.129507899284363 4.940855503082275 1.397947192192078 L 4.941775798797607 1.424397230148315 L 4.944565773010254 1.450717210769653 L 6.427042007446289 15.45177936553955 C 6.436367988586426 15.82171535491943 6.356441020965576 15.93456172943115 6.331255912780762 15.96064758300781 C 6.292995929718018 16.00025749206543 6.147675514221191 16.0924072265625 5.625755786895752 16.0924072265625 Z"/>
      <path class="cls-4" d="M 1.962462902069092 1.63994026184082 L 1.795299530029297 15.13663101196289 C 1.796494960784912 15.16135883331299 1.79800271987915 15.184006690979 1.79971170425415 15.2046365737915 C 1.909441947937012 15.21473979949951 2.076157093048096 15.22254753112793 2.329325675964355 15.22254753112793 C 2.443405628204346 15.22254753112793 2.561295509338379 15.22135734558105 2.682705879211426 15.22014713287354 C 2.821845531463623 15.21877670288086 2.965285778045654 15.21737670898438 3.112675666809082 15.21737670898438 C 3.326205730438232 15.21737670898438 3.516145706176758 15.22041702270508 3.693375587463379 15.2266674041748 C 4.050545692443848 15.23927688598633 4.384515762329102 15.26540756225586 4.70749568939209 15.29068756103516 C 5.047445774078369 15.31728744506836 5.368545532226563 15.3424072265625 5.625765800476074 15.3424072265625 C 5.637982845306396 15.3424072265625 5.649798393249512 15.34234809875488 5.661252021789551 15.34223556518555 L 4.215851783752441 1.691335678100586 C 3.987206697463989 1.712985038757324 3.725229501724243 1.729557037353516 3.431535720825195 1.729557037353516 C 3.340255737304688 1.729557037353516 3.247675895690918 1.727927207946777 3.156285762786865 1.72470760345459 C 2.760275840759277 1.710726737976074 2.416035652160645 1.680137634277344 2.112315654754639 1.653146743774414 C 2.060850143432617 1.648573875427246 2.010821342468262 1.64412784576416 1.962462902069092 1.63994026184082 M 5.030129432678223 0.09865951538085938 C 5.484519958496094 0.09862136840820313 5.653798580169678 0.3247394561767578 5.690395832061768 1.371747016906738 L 7.175835609436035 15.40079689025879 C 7.217586994171143 16.59527397155762 6.574844837188721 16.8424072265625 5.62576961517334 16.8424072265625 C 5.048873424530029 16.8424072265625 4.358795642852783 16.75109672546387 3.640455722808838 16.72573661804199 C 3.459652900695801 16.7193546295166 3.283349514007568 16.71737861633301 3.11267614364624 16.71737861633301 C 2.836358547210693 16.71737861633301 2.574421882629395 16.72254371643066 2.329322814941406 16.72254371643066 C 1.134805202484131 16.72254371643066 0.3453264236450195 16.59982872009277 0.2949256896972656 15.15790748596191 L 0.4633855819702148 1.556557655334473 C 0.4214868545532227 0.3578662872314453 0.7613887786865234 0.1108798980712891 1.484774112701416 0.1108798980712891 C 1.920390129089355 0.1108798980712891 2.495040893554688 0.2004241943359375 3.209205627441406 0.2256374359130859 C 3.285516262054443 0.2283306121826172 3.359635829925537 0.2295589447021484 3.431535720825195 0.2295589447021484 C 4.173918724060059 0.2295589447021484 4.684504508972168 0.09868812561035156 5.030129432678223 0.09865951538085938 Z"/>
    </g>
    <g id="Ellipse_3" data-name="Ellipse 3" class="cls-2" transform="translate(10 9)">
      <ellipse class="cls-3" cx="8.724" cy="8.284" rx="8.724" ry="8.284"/>
      <ellipse class="cls-5" cx="8.724" cy="8.284" rx="7.974" ry="7.534"/>
    </g>
  </g>
</svg>
