<svg xmlns="http://www.w3.org/2000/svg" viewBox="0 0 37.381 34.091"><defs><style>.a,.b{fill:#fff;}.b{stroke:#199ec7;stroke-width:2px;}.c,.d{stroke:none;}.d{fill:#199ec7;}.e{fill:none;}</style></defs><g class="a" transform="translate(19.961 23.264) rotate(-49)"><path class="c" d="M 5.625755786895752 15.8424072265625 C 5.348995685577393 15.8424072265625 5.018445491790771 15.81654739379883 4.668495655059814 15.7891674041748 C 4.35075569152832 15.76430702209473 4.022215843200684 15.73859691619873 3.675735712051392 15.72636699676514 C 3.504515647888184 15.72032737731934 3.320305585861206 15.71738719940186 3.112575769424438 15.71738719940186 C 2.966945648193359 15.71738719940186 2.825185775756836 15.71877765655518 2.687665700912476 15.72012710571289 C 2.564565658569336 15.72134685516357 2.445035696029663 15.72254753112793 2.329385757446289 15.72254753112793 C 1.61439573764801 15.72254753112793 1.433645725250244 15.65719699859619 1.389535665512085 15.61824703216553 C 1.388917565345764 15.61756992340088 1.311037659645081 15.51887702941895 1.295161008834839 15.1448335647583 L 1.463305711746216 1.568937182426453 L 1.463605642318726 1.545277237892151 L 1.462775707244873 1.521627187728882 C 1.456084012985229 1.330161452293396 1.462320804595947 1.198488831520081 1.471465110778809 1.110920310020447 C 1.475796699523926 1.110892057418823 1.480234146118164 1.110877156257629 1.48477566242218 1.110877156257629 C 1.658885717391968 1.110877156257629 1.889535665512085 1.131377220153809 2.156595706939697 1.155107140541077 C 2.454075574874878 1.181547164916992 2.791245698928833 1.211507201194763 3.173925638198853 1.225017189979553 C 3.259365797042847 1.22802722454071 3.346035718917847 1.229557156562805 3.431535720825195 1.229557156562805 C 3.9369056224823 1.229557156562805 4.349845886230469 1.176417231559753 4.651365756988525 1.137607216835022 C 4.659744739532471 1.136528968811035 4.668109893798828 1.135452508926392 4.676429271697998 1.13438355922699 C 4.682126045227051 1.208861708641052 4.687229156494141 1.298666000366211 4.691005706787109 1.40667724609375 L 4.692235469818115 1.441947221755981 L 4.695955753326416 1.477037191390991 L 6.177337646484375 15.4677619934082 C 6.181159973144531 15.65381526947021 6.158703327178955 15.74719429016113 6.146425247192383 15.78381538391113 C 6.100241184234619 15.80224418640137 5.961110591888428 15.8424072265625 5.625755786895752 15.8424072265625 Z"/><path class="d" d="M 2.455768585205078 2.184213638305664 L 2.300475120544434 14.72251415252686 C 2.309934616088867 14.72253608703613 2.31955099105835 14.72254753112793 2.329325675964355 14.72254753112793 C 2.441815853118896 14.72254753112793 2.558045864105225 14.72135734558105 2.677755832672119 14.72017669677734 C 2.818495750427246 14.71878719329834 2.96358585357666 14.71737670898438 3.112675666809082 14.71737670898438 C 3.332135677337646 14.71737670898438 3.527845859527588 14.7205171585083 3.711015701293945 14.7269868850708 C 4.078886032104492 14.73996734619141 4.433565616607666 14.7677173614502 4.746495723724365 14.79220771789551 C 4.868813514709473 14.80177974700928 4.988620281219482 14.81115341186523 5.103072166442871 14.8191614151001 L 3.769328594207764 2.222787857055664 C 3.661850452423096 2.227085113525391 3.54926609992981 2.229557037353516 3.431535720825195 2.229557037353516 C 3.334415912628174 2.229557037353516 3.235905647277832 2.227817535400391 3.138645648956299 2.224397659301758 C 2.893620491027832 2.215742111206055 2.663898944854736 2.200594902038574 2.455768585205078 2.184213638305664 M 5.030129432678223 0.09865951538085938 C 5.484519958496094 0.09862136840820313 5.653798580169678 0.3247394561767578 5.690395832061768 1.371747016906738 L 7.175835609436035 15.40079689025879 C 7.217586994171143 16.59527397155762 6.574844837188721 16.8424072265625 5.62576961517334 16.8424072265625 C 5.048873424530029 16.8424072265625 4.358795642852783 16.75109672546387 3.640455722808838 16.72573661804199 C 3.459652900695801 16.7193546295166 3.283349514007568 16.71737861633301 3.11267614364624 16.71737861633301 C 2.836358547210693 16.71737861633301 2.574421882629395 16.72254371643066 2.329322814941406 16.72254371643066 C 1.134805202484131 16.72254371643066 0.3453264236450195 16.59982872009277 0.2949256896972656 15.15790748596191 L 0.4633855819702148 1.556557655334473 C 0.4214868545532227 0.3578662872314453 0.7613887786865234 0.1108798980712891 1.484774112701416 0.1108798980712891 C 1.920390129089355 0.1108798980712891 2.495040893554688 0.2004241943359375 3.209205627441406 0.2256374359130859 C 3.285516262054443 0.2283306121826172 3.359635829925537 0.2295589447021484 3.431535720825195 0.2295589447021484 C 4.173918724060059 0.2295589447021484 4.684504508972168 0.09868812561035156 5.030129432678223 0.09865951538085938 Z"/></g><g class="b"><ellipse class="c" cx="13.724" cy="12.784" rx="13.724" ry="12.784"/><ellipse class="e" cx="13.724" cy="12.784" rx="12.724" ry="11.784"/></g></svg>