<svg xmlns="http://www.w3.org/2000/svg" viewBox="0 0 30.77 39.977"><defs><style>.a,.b,.e{fill:none;}.a{stroke:#fff;stroke-width:2px;}.c,.d{stroke:none;}.d{fill:#fff;}</style></defs><g transform="translate(-83.964 -651.037)"><g transform="translate(84.97 652.514)"><path class="a" d="M2195.959,451.974h-13.738a3.63,3.63,0,0,0-2.345.616,3.482,3.482,0,0,0-.665,2.3v31.641a3.6,3.6,0,0,0,.665,2.348,3.475,3.475,0,0,0,2.345.564h21.85a3.621,3.621,0,0,0,2.361-.6,3.467,3.467,0,0,0,.65-2.311v-24.87l-5.365-4.671Z" transform="translate(-2179.208 -451.967)"/><path class="a" d="M2207.214,459.253l-10.124.518v-9.16Z" transform="translate(-2180.009 -449.92)"/></g><g transform="translate(92.189 667.5)"><g class="b" transform="translate(9.844 11.245) rotate(-49)"><path class="c" d="M1.418.062C2.343.094,2.593-.315,2.626.62l.723,6.827c.033.935-.8.677-1.721.645S.033,8.263,0,7.329L.082.71C.049-.225.494.029,1.418.062Z"/><path class="d" d="M 2.304440498352051 -9.5367431640625e-07 C 2.525572061538696 -2.09808349609375e-05 2.607948541641235 0.110020637512207 2.625759124755859 0.6195597648620605 L 3.348669290542603 7.446959972381592 C 3.368986129760742 8.028206825256348 3.056127309799194 8.148527145385742 2.594324350357056 8.148527145385742 C 2.313544273376465 8.148527145385742 1.977783918380737 8.104091644287109 1.628139138221741 8.091750144958496 C 1.540149450302124 8.088644027709961 1.454361796379089 8.087682723999023 1.371301651000977 8.087682723999023 C 1.236828565597534 8.087682723999023 1.109323978424072 8.09019660949707 0.9900436401367188 8.09019660949707 C 0.4087183475494385 8.09019660949707 0.02452754974365234 8.030479431152344 -7.152557373046875e-07 7.328749656677246 L 0.08197927474975586 0.7094998359680176 C 0.06158828735351563 0.1261425018310547 0.2270078659057617 0.005944252014160156 0.5790534019470215 0.005944252014160156 C 0.7910518646240234 0.005944252014160156 1.070712804794312 0.04952239990234375 1.418269157409668 0.06178951263427734 C 1.455406546592712 0.06310081481933594 1.491506457328796 0.06369972229003906 1.526497364044189 0.06369972229003906 C 1.887786030769348 0.06369972229003906 2.136240005493164 1.33514404296875e-05 2.304440498352051 -9.5367431640625e-07 Z"/></g><g class="a"><ellipse class="c" cx="6.679" cy="6.221" rx="6.679" ry="6.221"/><ellipse class="e" cx="6.679" cy="6.221" rx="5.679" ry="5.221"/></g></g></g></svg>