<svg xmlns="http://www.w3.org/2000/svg" viewBox="0 0 29.779 41"><defs><style>.a{fill:none;}.a,.c{stroke:#199ec7;stroke-width:2px;}.b,.c{fill:#fff;}.d,.e{stroke:none;}.e{fill:#199ec7;}</style></defs><g transform="translate(-38.278 -530.118)"><line class="a" x2="18.294" transform="translate(43.821 570.118)"/><line class="a" y1="12.462" transform="translate(52.968 557.656)"/><g class="b" transform="translate(43.613 530.118)"><path class="d" d="M 9.562613487243652 13.9410400390625 C 7.230093479156494 13.9410400390625 4.84661340713501 13.83891010284424 3.21410346031189 13.09799957275391 C 1.68285346031189 12.40305042266846 1.000003457069397 11.21512985229492 1.000003457069397 9.246250152587891 C 1.000003457069397 4.699250221252441 4.841173648834229 1 9.562613487243652 1 C 14.28405380249023 1 18.12522315979004 4.699250221252441 18.12522315979004 9.246250152587891 C 18.12522315979004 11.21512985229492 17.44237327575684 12.40305042266846 15.91112327575684 13.09799957275391 C 14.27862358093262 13.83891010284424 11.89513301849365 13.9410400390625 9.562613487243652 13.9410400390625 Z"/><path class="e" d="M 9.562613487243652 2 C 5.392573356628418 2 2.000003814697266 5.250650405883789 2.000003814697266 9.246250152587891 C 2.000003814697266 11.07425975799561 2.650564193725586 11.74407958984375 3.627373695373535 12.18739986419678 C 5.090653419494629 12.85149955749512 7.448823928833008 12.9410400390625 9.562613487243652 12.9410400390625 C 11.6764030456543 12.9410400390625 14.0345630645752 12.85149955749512 15.49785327911377 12.18739986419678 C 16.47466278076172 11.74407005310059 17.12522315979004 11.07425975799561 17.12522315979004 9.246250152587891 C 17.12522315979004 5.250650405883789 13.73265361785889 2 9.562613487243652 2 M 9.562613487243652 0 C 14.84389305114746 0 19.12522315979004 4.139690399169922 19.12522315979004 9.246250152587891 C 19.12522315979004 14.35282039642334 14.84389305114746 14.9410400390625 9.562613487243652 14.9410400390625 C 4.281323432922363 14.9410400390625 3.814697265625e-06 14.35282039642334 3.814697265625e-06 9.246250152587891 C 3.814697265625e-06 4.139690399169922 4.281323432922363 0 9.562613487243652 0 Z"/></g><path class="c" d="M2979.657,599.3h27.651s-.564,6.344-4.143,9.794-9.9,3.553-9.9,3.553-6.562-.553-9.984-4S2979.657,599.3,2979.657,599.3Z" transform="translate(-2940.344 -54.991)"/><line class="a" y1="5.166" transform="translate(52.968 539.224)"/><line class="a" x2="8.731" transform="translate(48.81 539.565)"/><line class="a" y2="4.422" transform="translate(52.968 535.143)"/></g></svg>