<svg xmlns="http://www.w3.org/2000/svg" viewBox="0 0 207.127 202.358">
  <defs>
    <style>
      .cls-1 {
        fill: #f8f3eb;
      }

      .cls-1, .cls-2 {
        stroke: #a2885e;
        stroke-width: 3px;
      }

      .cls-2 {
        fill: #fff;
      }

      .cls-3 {
        stroke: none;
      }

      .cls-4 {
        fill: none;
      }
    </style>
  </defs>
  <g id="Group_183" data-name="Group 183" transform="translate(-1018 -514)">
    <g id="Ellipse_7" data-name="Ellipse 7" class="cls-1" transform="translate(1018 514)">
      <ellipse class="cls-3" cx="103.564" cy="101.179" rx="103.564" ry="101.179"/>
      <ellipse class="cls-4" cx="103.564" cy="101.179" rx="102.064" ry="99.679"/>
    </g>
    <path id="Path_13" data-name="Path 13" class="cls-2" d="M3249.933,558.431s1.339,11.721-3.31,21.8-15.285,18.516-15.285,18.516-11.407,9.636-16.947,20.337-5.214,22.468-5.214,22.468-.708,10.967,5.214,20.237,18.476,16.844,18.476,16.844a89.741,89.741,0,0,1,12.365,5.358,21.524,21.524,0,0,1,6.739,5.592s1.043-1.833,6.839-5.255,16.341-8.433,16.341-8.433,15.341-8.459,18.716-25.817c1.31-6.735,1.863-15.345-.479-22.52a54.606,54.606,0,0,0-10.977-18.432s1.173,7.97-.96,15.081-7.573,13.365-7.573,13.365,6.107-14.882,4.9-28.445-11.045-24.129-11.045-24.129,1.309,10-.274,18.164a41.858,41.858,0,0,1-6.059,14.5s-7.706,9.051-11.463,15.459-4.227,10.121-4.227,10.121a45.489,45.489,0,0,1,.617-9.518c.892-5.1,4.666-10.523,4.666-10.523s11.515-18.661,11.251-34.853S3249.933,558.431,3249.933,558.431Z" transform="translate(-2130.466 -6.425)"/>
  </g>
</svg>
