<svg xmlns="http://www.w3.org/2000/svg" viewBox="0 0 28.424 44.913"><defs><style>.a{fill:#fff;stroke:#199ec7;stroke-width:2px;}</style></defs><g transform="translate(-365.845 -527.916)"><g transform="translate(366.86 530.959)"><path class="a" d="M3221.689,558.431a14.048,14.048,0,0,1-1.018,6.649,18.623,18.623,0,0,1-4.7,5.647,24.655,24.655,0,0,0-5.211,6.2,15.665,15.665,0,0,0-1.6,6.852,11.333,11.333,0,0,0,1.6,6.172,20.272,20.272,0,0,0,5.681,5.137,27.713,27.713,0,0,1,3.8,1.634,6.6,6.6,0,0,1,2.072,1.706,6.261,6.261,0,0,1,2.1-1.6c1.782-1.044,5.024-2.572,5.024-2.572a12.475,12.475,0,0,0,5.754-7.874,14.257,14.257,0,0,0-.147-6.869,16.641,16.641,0,0,0-3.375-5.622,12.087,12.087,0,0,1-.3,4.6,12.827,12.827,0,0,1-2.328,4.076,21.514,21.514,0,0,0,1.506-8.676,13.972,13.972,0,0,0-3.4-7.359,20.3,20.3,0,0,1-.084,5.54,12.715,12.715,0,0,1-1.863,4.423,43.33,43.33,0,0,0-3.524,4.715,9.2,9.2,0,0,0-1.3,3.087,13.785,13.785,0,0,1,.19-2.9,9.659,9.659,0,0,1,1.435-3.209s3.541-5.692,3.459-10.63S3221.689,558.431,3221.689,558.431Z" transform="translate(-3209.15 -558.431)"/></g></g></svg>