<svg xmlns="http://www.w3.org/2000/svg" viewBox="0 0 23.805 21.152">
  <defs>
    <style>
      .cls-1 {
        fill: #fff;
        stroke: #1588ab;
        stroke-width: 2px;
      }
    </style>
  </defs>
  <g id="Group_119" data-name="Group 119" transform="translate(-961.551 -663)">
    <path id="Path_15" data-name="Path 15" class="cls-1" d="M7521.939,567.272h-9.816a1.287,1.287,0,0,0-1.565,1.566V582a2.137,2.137,0,0,0,.466,1.306,2.529,2.529,0,0,0,1.366.527h13.357a1.7,1.7,0,0,0,1.1-.33,1.876,1.876,0,0,0,.362-1.136v-5.273" transform="translate(-6548 99.321)"/>
    <path id="Path_34" data-name="Path 34" class="cls-1" d="M7521.939,567.272h-9.816a1.287,1.287,0,0,0-1.565,1.566V582a2.137,2.137,0,0,0,.466,1.306,2.529,2.529,0,0,0,1.366.527h13.357a1.7,1.7,0,0,0,1.1-.33,1.876,1.876,0,0,0,.362-1.136v-5.273" transform="translate(-6548 99.321)"/>
    <path id="Path_16" data-name="Path 16" class="cls-1" d="M7530.782,570.913l-8.358,7.945a6.5,6.5,0,0,1-2.1.561c-1.02.051-1.421.344-1.984-.357s-.319-1.169-.143-2.252a6.018,6.018,0,0,1,.85-2.078l7.925-7.751Z" transform="translate(-6548.999 99.36)"/>
    <path id="Path_17" data-name="Path 17" class="cls-1" d="M7528.512,566.493l1.992-1.993a1.812,1.812,0,0,1,.814-.223,2.639,2.639,0,0,1,.923.223l2.288,2.288a2.071,2.071,0,0,1,.238.8,1.035,1.035,0,0,1-.238.622l-2.231,2.232Z" transform="translate(-6550.412 99.723)"/>
  </g>
</svg>
