<svg xmlns="http://www.w3.org/2000/svg" viewBox="0 0 207.127 202.358"><defs><style>.a{fill:#f8f3eb;}.a,.b,.c{stroke:#a2885e;stroke-width:3px;}.b{fill:#fff;}.c,.e{fill:none;}.d{stroke:none;}</style></defs><g transform="translate(-1342 -514)"><g class="a" transform="translate(1342 514)"><ellipse class="d" cx="103.564" cy="101.179" rx="103.564" ry="101.179"/><ellipse class="e" cx="103.564" cy="101.179" rx="102.064" ry="99.679"/></g><g class="b" transform="translate(1381.563 590.306)"><ellipse class="d" cx="37.166" cy="36.31" rx="37.166" ry="36.31"/><ellipse class="e" cx="37.166" cy="36.31" rx="35.666" ry="34.81"/></g><g class="b" transform="translate(1433.101 590.306)"><ellipse class="d" cx="37.166" cy="36.31" rx="37.166" ry="36.31"/><ellipse class="e" cx="37.166" cy="36.31" rx="35.666" ry="34.81"/></g><path class="b" d="M3480.168,586.1l12.2,5.142,15.919-10.034-6.548-9.908-18.743-5.644-9.372,5.142Z" transform="translate(-1999.27 6.887)"/><g transform="translate(1381.563 572.547)"><g class="c" transform="translate(0 17.758)"><ellipse class="d" cx="37.166" cy="36.31" rx="37.166" ry="36.31"/><ellipse class="e" cx="37.166" cy="36.31" rx="35.666" ry="34.81"/></g><g class="c" transform="translate(0 17.758)"><ellipse class="d" cx="37.166" cy="36.31" rx="37.166" ry="36.31"/><ellipse class="e" cx="37.166" cy="36.31" rx="35.666" ry="34.81"/></g><g class="c" transform="translate(51.537 17.758)"><ellipse class="d" cx="37.166" cy="36.31" rx="37.166" ry="36.31"/><ellipse class="e" cx="37.166" cy="36.31" rx="35.666" ry="34.81"/></g><path class="c" d="M3480.168,586.1l12.2,5.142,15.919-10.034-6.548-9.908-18.743-5.644-9.372,5.142Z" transform="translate(-3380.834 -565.66)"/></g></g></svg>