<svg xmlns="http://www.w3.org/2000/svg" viewBox="0 0 40.226 29.081"><defs><style>.a{fill:#fff;stroke:#199ec7;stroke-width:2px;}.b{stroke:none;}.c{fill:none;}</style></defs><g transform="translate(-669.6 -533.882)"><g class="a" transform="translate(669.6 540.465)"><ellipse class="b" cx="11.326" cy="11.249" rx="11.326" ry="11.249"/><ellipse class="c" cx="11.326" cy="11.249" rx="10.326" ry="10.249"/></g><g class="a" transform="translate(685.305 540.465)"><ellipse class="b" cx="11.326" cy="11.249" rx="11.326" ry="11.249"/><ellipse class="c" cx="11.326" cy="11.249" rx="10.326" ry="10.249"/></g><path class="a" d="M3475.616,571.994l3.716,1.593,4.852-3.109-2-3.07-5.712-1.749-2.856,1.593Z" transform="translate(-2775.745 -30.697)"/><g transform="translate(669.6 534.963)"><g class="a" transform="translate(0 5.502)"><ellipse class="b" cx="11.326" cy="11.249" rx="11.326" ry="11.249"/><ellipse class="c" cx="11.326" cy="11.249" rx="10.326" ry="10.249"/></g><g class="a" transform="translate(0 5.502)"><ellipse class="b" cx="11.326" cy="11.249" rx="11.326" ry="11.249"/><ellipse class="c" cx="11.326" cy="11.249" rx="10.326" ry="10.249"/></g><g class="a" transform="translate(15.705 5.502)"><ellipse class="b" cx="11.326" cy="11.249" rx="11.326" ry="11.249"/><ellipse class="c" cx="11.326" cy="11.249" rx="10.326" ry="10.249"/></g><path class="a" d="M3475.616,571.994l3.716,1.593,4.852-3.109-2-3.07-5.712-1.749-2.856,1.593Z" transform="translate(-3445.345 -565.66)"/></g></g></svg>